G04 #@! TF.FileFunction,Legend,Top*
%FSLAX46Y46*%
G04 Gerber Fmt 4.6, Leading zero omitted, Abs format (unit mm)*
G04 Created by KiCad (PCBNEW 4.0.7) date Wed Nov 28 02:08:13 2018*
%MOMM*%
%LPD*%
G01*
G04 APERTURE LIST*
%ADD10C,0.100000*%
%ADD11C,0.200000*%
%ADD12C,0.150000*%
%ADD13C,0.120000*%
G04 APERTURE END LIST*
D10*
D11*
X119119048Y-110821429D02*
X119880953Y-110821429D01*
X119500001Y-111202381D02*
X119500001Y-110440476D01*
X119488095Y-118952381D02*
X119488095Y-117952381D01*
X119726190Y-117952381D01*
X119869048Y-118000000D01*
X119964286Y-118095238D01*
X120011905Y-118190476D01*
X120059524Y-118380952D01*
X120059524Y-118523810D01*
X120011905Y-118714286D01*
X119964286Y-118809524D01*
X119869048Y-118904762D01*
X119726190Y-118952381D01*
X119488095Y-118952381D01*
X120059524Y-121107143D02*
X120011905Y-121154762D01*
X119869048Y-121202381D01*
X119773810Y-121202381D01*
X119630952Y-121154762D01*
X119535714Y-121059524D01*
X119488095Y-120964286D01*
X119440476Y-120773810D01*
X119440476Y-120630952D01*
X119488095Y-120440476D01*
X119535714Y-120345238D01*
X119630952Y-120250000D01*
X119773810Y-120202381D01*
X119869048Y-120202381D01*
X120011905Y-120250000D01*
X120059524Y-120297619D01*
X108964286Y-78821429D02*
X109726191Y-78821429D01*
X109345239Y-79202381D02*
X109345239Y-78440476D01*
X110107143Y-78202381D02*
X110726191Y-78202381D01*
X110392857Y-78583333D01*
X110535715Y-78583333D01*
X110630953Y-78630952D01*
X110678572Y-78678571D01*
X110726191Y-78773810D01*
X110726191Y-79011905D01*
X110678572Y-79107143D01*
X110630953Y-79154762D01*
X110535715Y-79202381D01*
X110250000Y-79202381D01*
X110154762Y-79154762D01*
X110107143Y-79107143D01*
X111011905Y-78202381D02*
X111345238Y-79202381D01*
X111678572Y-78202381D01*
D12*
X119000000Y-102500000D02*
X113000000Y-102500000D01*
X121000000Y-83500000D02*
X121000000Y-100500000D01*
X119000000Y-81500000D02*
X113000000Y-81500000D01*
X119000000Y-102500000D02*
G75*
G03X121000000Y-100500000I0J2000000D01*
G01*
X121000000Y-83500000D02*
G75*
G03X119000000Y-81500000I-2000000J0D01*
G01*
X101000000Y-87000000D02*
X106500000Y-81500000D01*
X106500000Y-81500000D02*
X109000000Y-81500000D01*
X101000000Y-97000000D02*
X106500000Y-102500000D01*
X106500000Y-102500000D02*
X109000000Y-102500000D01*
X101000000Y-87000000D02*
X101000000Y-97000000D01*
D13*
X102400000Y-103600000D02*
X102400000Y-102900000D01*
X103600000Y-102900000D02*
X103600000Y-103600000D01*
X100600000Y-100600000D02*
X99900000Y-100600000D01*
X99900000Y-99400000D02*
X100600000Y-99400000D01*
X103980000Y-106750000D02*
X103980000Y-108750000D01*
X106020000Y-108750000D02*
X106020000Y-106750000D01*
X100650000Y-117400000D02*
X101350000Y-117400000D01*
X101350000Y-118600000D02*
X100650000Y-118600000D01*
X100650000Y-114900000D02*
X101350000Y-114900000D01*
X101350000Y-116100000D02*
X100650000Y-116100000D01*
X121150000Y-107900000D02*
X121850000Y-107900000D01*
X121850000Y-109100000D02*
X121150000Y-109100000D01*
X122760000Y-106580000D02*
X122760000Y-105650000D01*
X122760000Y-103420000D02*
X122760000Y-104350000D01*
X122760000Y-103420000D02*
X120600000Y-103420000D01*
X122760000Y-106580000D02*
X121300000Y-106580000D01*
X117000000Y-104570000D02*
X118000000Y-104570000D01*
X118000000Y-105930000D02*
X117000000Y-105930000D01*
X106000000Y-102820000D02*
X107000000Y-102820000D01*
X107000000Y-104180000D02*
X106000000Y-104180000D01*
X107820000Y-105750000D02*
X107820000Y-104750000D01*
X109180000Y-104750000D02*
X109180000Y-105750000D01*
X118000000Y-109180000D02*
X117000000Y-109180000D01*
X117000000Y-107820000D02*
X118000000Y-107820000D01*
D12*
X123000000Y-113100000D02*
X123000000Y-115900000D01*
X120000000Y-115900000D02*
X120000000Y-113100000D01*
X120900000Y-116600000D02*
X122100000Y-116600000D01*
X120900000Y-112400000D02*
X122000000Y-112400000D01*
X102000000Y-105500000D02*
G75*
G03X102000000Y-105500000I-250000J0D01*
G01*
X98750000Y-103500000D02*
X98750000Y-104500000D01*
X101250000Y-103500000D02*
X101250000Y-104500000D01*
D13*
X103125000Y-116075000D02*
X103125000Y-117425000D01*
X104875000Y-116075000D02*
X104875000Y-117425000D01*
X103130000Y-78170000D02*
X103130000Y-80830000D01*
X105730000Y-78170000D02*
X103130000Y-78170000D01*
X105730000Y-80830000D02*
X103130000Y-80830000D01*
X105730000Y-78170000D02*
X105730000Y-80830000D01*
X107000000Y-78170000D02*
X108330000Y-78170000D01*
X108330000Y-78170000D02*
X108330000Y-79500000D01*
X116170000Y-120450000D02*
X118830000Y-120450000D01*
X116170000Y-112770000D02*
X116170000Y-120450000D01*
X118830000Y-112770000D02*
X118830000Y-120450000D01*
X116170000Y-112770000D02*
X118830000Y-112770000D01*
X116170000Y-111500000D02*
X116170000Y-110170000D01*
X116170000Y-110170000D02*
X117500000Y-110170000D01*
D12*
X107750000Y-125350000D02*
X114250000Y-125350000D01*
X107750000Y-119750000D02*
X107750000Y-125350000D01*
X114250000Y-119750000D02*
X114250000Y-125350000D01*
X107750000Y-108350000D02*
X108050000Y-108350000D01*
X114250000Y-108350000D02*
X113950000Y-108350000D01*
X107750000Y-109750000D02*
X107750000Y-108350000D01*
X114250000Y-109750000D02*
X114250000Y-108350000D01*
X122428571Y-87785714D02*
X122476190Y-87642857D01*
X122523810Y-87595238D01*
X122619048Y-87547619D01*
X122761905Y-87547619D01*
X122857143Y-87595238D01*
X122904762Y-87642857D01*
X122952381Y-87738095D01*
X122952381Y-88119048D01*
X121952381Y-88119048D01*
X121952381Y-87785714D01*
X122000000Y-87690476D01*
X122047619Y-87642857D01*
X122142857Y-87595238D01*
X122238095Y-87595238D01*
X122333333Y-87642857D01*
X122380952Y-87690476D01*
X122428571Y-87785714D01*
X122428571Y-88119048D01*
X121952381Y-87261905D02*
X121952381Y-86690476D01*
X122952381Y-86976191D02*
X121952381Y-86976191D01*
X122952381Y-85833333D02*
X122952381Y-86404762D01*
X122952381Y-86119048D02*
X121952381Y-86119048D01*
X122095238Y-86214286D01*
X122190476Y-86309524D01*
X122238095Y-86404762D01*
X104857143Y-103416666D02*
X104904762Y-103464285D01*
X104952381Y-103607142D01*
X104952381Y-103702380D01*
X104904762Y-103845238D01*
X104809524Y-103940476D01*
X104714286Y-103988095D01*
X104523810Y-104035714D01*
X104380952Y-104035714D01*
X104190476Y-103988095D01*
X104095238Y-103940476D01*
X104000000Y-103845238D01*
X103952381Y-103702380D01*
X103952381Y-103607142D01*
X104000000Y-103464285D01*
X104047619Y-103416666D01*
X104952381Y-102464285D02*
X104952381Y-103035714D01*
X104952381Y-102750000D02*
X103952381Y-102750000D01*
X104095238Y-102845238D01*
X104190476Y-102940476D01*
X104238095Y-103035714D01*
X100083334Y-98857143D02*
X100035715Y-98904762D01*
X99892858Y-98952381D01*
X99797620Y-98952381D01*
X99654762Y-98904762D01*
X99559524Y-98809524D01*
X99511905Y-98714286D01*
X99464286Y-98523810D01*
X99464286Y-98380952D01*
X99511905Y-98190476D01*
X99559524Y-98095238D01*
X99654762Y-98000000D01*
X99797620Y-97952381D01*
X99892858Y-97952381D01*
X100035715Y-98000000D01*
X100083334Y-98047619D01*
X100464286Y-98047619D02*
X100511905Y-98000000D01*
X100607143Y-97952381D01*
X100845239Y-97952381D01*
X100940477Y-98000000D01*
X100988096Y-98047619D01*
X101035715Y-98142857D01*
X101035715Y-98238095D01*
X100988096Y-98380952D01*
X100416667Y-98952381D01*
X101035715Y-98952381D01*
X103607143Y-107916666D02*
X103654762Y-107964285D01*
X103702381Y-108107142D01*
X103702381Y-108202380D01*
X103654762Y-108345238D01*
X103559524Y-108440476D01*
X103464286Y-108488095D01*
X103273810Y-108535714D01*
X103130952Y-108535714D01*
X102940476Y-108488095D01*
X102845238Y-108440476D01*
X102750000Y-108345238D01*
X102702381Y-108202380D01*
X102702381Y-108107142D01*
X102750000Y-107964285D01*
X102797619Y-107916666D01*
X102702381Y-107583333D02*
X102702381Y-106964285D01*
X103083333Y-107297619D01*
X103083333Y-107154761D01*
X103130952Y-107059523D01*
X103178571Y-107011904D01*
X103273810Y-106964285D01*
X103511905Y-106964285D01*
X103607143Y-107011904D01*
X103654762Y-107059523D01*
X103702381Y-107154761D01*
X103702381Y-107440476D01*
X103654762Y-107535714D01*
X103607143Y-107583333D01*
X99107143Y-118166666D02*
X99154762Y-118214285D01*
X99202381Y-118357142D01*
X99202381Y-118452380D01*
X99154762Y-118595238D01*
X99059524Y-118690476D01*
X98964286Y-118738095D01*
X98773810Y-118785714D01*
X98630952Y-118785714D01*
X98440476Y-118738095D01*
X98345238Y-118690476D01*
X98250000Y-118595238D01*
X98202381Y-118452380D01*
X98202381Y-118357142D01*
X98250000Y-118214285D01*
X98297619Y-118166666D01*
X98535714Y-117309523D02*
X99202381Y-117309523D01*
X98154762Y-117547619D02*
X98869048Y-117785714D01*
X98869048Y-117166666D01*
X99107143Y-115666666D02*
X99154762Y-115714285D01*
X99202381Y-115857142D01*
X99202381Y-115952380D01*
X99154762Y-116095238D01*
X99059524Y-116190476D01*
X98964286Y-116238095D01*
X98773810Y-116285714D01*
X98630952Y-116285714D01*
X98440476Y-116238095D01*
X98345238Y-116190476D01*
X98250000Y-116095238D01*
X98202381Y-115952380D01*
X98202381Y-115857142D01*
X98250000Y-115714285D01*
X98297619Y-115666666D01*
X98202381Y-114761904D02*
X98202381Y-115238095D01*
X98678571Y-115285714D01*
X98630952Y-115238095D01*
X98583333Y-115142857D01*
X98583333Y-114904761D01*
X98630952Y-114809523D01*
X98678571Y-114761904D01*
X98773810Y-114714285D01*
X99011905Y-114714285D01*
X99107143Y-114761904D01*
X99154762Y-114809523D01*
X99202381Y-114904761D01*
X99202381Y-115142857D01*
X99154762Y-115238095D01*
X99107143Y-115285714D01*
X120761905Y-110452381D02*
X120761905Y-109452381D01*
X121000000Y-109452381D01*
X121142858Y-109500000D01*
X121238096Y-109595238D01*
X121285715Y-109690476D01*
X121333334Y-109880952D01*
X121333334Y-110023810D01*
X121285715Y-110214286D01*
X121238096Y-110309524D01*
X121142858Y-110404762D01*
X121000000Y-110452381D01*
X120761905Y-110452381D01*
X122285715Y-110452381D02*
X121714286Y-110452381D01*
X122000000Y-110452381D02*
X122000000Y-109452381D01*
X121904762Y-109595238D01*
X121809524Y-109690476D01*
X121714286Y-109738095D01*
X121904762Y-103047619D02*
X121809524Y-103000000D01*
X121714286Y-102904762D01*
X121571429Y-102761905D01*
X121476190Y-102714286D01*
X121380952Y-102714286D01*
X121428571Y-102952381D02*
X121333333Y-102904762D01*
X121238095Y-102809524D01*
X121190476Y-102619048D01*
X121190476Y-102285714D01*
X121238095Y-102095238D01*
X121333333Y-102000000D01*
X121428571Y-101952381D01*
X121619048Y-101952381D01*
X121714286Y-102000000D01*
X121809524Y-102095238D01*
X121857143Y-102285714D01*
X121857143Y-102619048D01*
X121809524Y-102809524D01*
X121714286Y-102904762D01*
X121619048Y-102952381D01*
X121428571Y-102952381D01*
X122809524Y-102952381D02*
X122238095Y-102952381D01*
X122523809Y-102952381D02*
X122523809Y-101952381D01*
X122428571Y-102095238D01*
X122333333Y-102190476D01*
X122238095Y-102238095D01*
X117333334Y-104202381D02*
X117000000Y-103726190D01*
X116761905Y-104202381D02*
X116761905Y-103202381D01*
X117142858Y-103202381D01*
X117238096Y-103250000D01*
X117285715Y-103297619D01*
X117333334Y-103392857D01*
X117333334Y-103535714D01*
X117285715Y-103630952D01*
X117238096Y-103678571D01*
X117142858Y-103726190D01*
X116761905Y-103726190D01*
X118285715Y-104202381D02*
X117714286Y-104202381D01*
X118000000Y-104202381D02*
X118000000Y-103202381D01*
X117904762Y-103345238D01*
X117809524Y-103440476D01*
X117714286Y-103488095D01*
X106333334Y-105402381D02*
X106000000Y-104926190D01*
X105761905Y-105402381D02*
X105761905Y-104402381D01*
X106142858Y-104402381D01*
X106238096Y-104450000D01*
X106285715Y-104497619D01*
X106333334Y-104592857D01*
X106333334Y-104735714D01*
X106285715Y-104830952D01*
X106238096Y-104878571D01*
X106142858Y-104926190D01*
X105761905Y-104926190D01*
X106714286Y-104497619D02*
X106761905Y-104450000D01*
X106857143Y-104402381D01*
X107095239Y-104402381D01*
X107190477Y-104450000D01*
X107238096Y-104497619D01*
X107285715Y-104592857D01*
X107285715Y-104688095D01*
X107238096Y-104830952D01*
X106666667Y-105402381D01*
X107285715Y-105402381D01*
X110402381Y-105416666D02*
X109926190Y-105750000D01*
X110402381Y-105988095D02*
X109402381Y-105988095D01*
X109402381Y-105607142D01*
X109450000Y-105511904D01*
X109497619Y-105464285D01*
X109592857Y-105416666D01*
X109735714Y-105416666D01*
X109830952Y-105464285D01*
X109878571Y-105511904D01*
X109926190Y-105607142D01*
X109926190Y-105988095D01*
X109402381Y-105083333D02*
X109402381Y-104464285D01*
X109783333Y-104797619D01*
X109783333Y-104654761D01*
X109830952Y-104559523D01*
X109878571Y-104511904D01*
X109973810Y-104464285D01*
X110211905Y-104464285D01*
X110307143Y-104511904D01*
X110354762Y-104559523D01*
X110402381Y-104654761D01*
X110402381Y-104940476D01*
X110354762Y-105035714D01*
X110307143Y-105083333D01*
X117333334Y-107452381D02*
X117000000Y-106976190D01*
X116761905Y-107452381D02*
X116761905Y-106452381D01*
X117142858Y-106452381D01*
X117238096Y-106500000D01*
X117285715Y-106547619D01*
X117333334Y-106642857D01*
X117333334Y-106785714D01*
X117285715Y-106880952D01*
X117238096Y-106928571D01*
X117142858Y-106976190D01*
X116761905Y-106976190D01*
X118190477Y-106785714D02*
X118190477Y-107452381D01*
X117952381Y-106404762D02*
X117714286Y-107119048D01*
X118333334Y-107119048D01*
X120916667Y-118654762D02*
X121059524Y-118702381D01*
X121297620Y-118702381D01*
X121392858Y-118654762D01*
X121440477Y-118607143D01*
X121488096Y-118511905D01*
X121488096Y-118416667D01*
X121440477Y-118321429D01*
X121392858Y-118273810D01*
X121297620Y-118226190D01*
X121107143Y-118178571D01*
X121011905Y-118130952D01*
X120964286Y-118083333D01*
X120916667Y-117988095D01*
X120916667Y-117892857D01*
X120964286Y-117797619D01*
X121011905Y-117750000D01*
X121107143Y-117702381D01*
X121345239Y-117702381D01*
X121488096Y-117750000D01*
X121821429Y-117702381D02*
X122059524Y-118702381D01*
X122250001Y-117988095D01*
X122440477Y-118702381D01*
X122678572Y-117702381D01*
X123583334Y-118702381D02*
X123011905Y-118702381D01*
X123297619Y-118702381D02*
X123297619Y-117702381D01*
X123202381Y-117845238D01*
X123107143Y-117940476D01*
X123011905Y-117988095D01*
X99988095Y-106952381D02*
X99988095Y-107761905D01*
X100035714Y-107857143D01*
X100083333Y-107904762D01*
X100178571Y-107952381D01*
X100369048Y-107952381D01*
X100464286Y-107904762D01*
X100511905Y-107857143D01*
X100559524Y-107761905D01*
X100559524Y-106952381D01*
X101559524Y-107952381D02*
X100988095Y-107952381D01*
X101273809Y-107952381D02*
X101273809Y-106952381D01*
X101178571Y-107095238D01*
X101083333Y-107190476D01*
X100988095Y-107238095D01*
X104226190Y-113976191D02*
X104702381Y-113976191D01*
X103702381Y-114309524D02*
X104226190Y-113976191D01*
X103702381Y-113642857D01*
X104702381Y-112785714D02*
X104702381Y-113357143D01*
X104702381Y-113071429D02*
X103702381Y-113071429D01*
X103845238Y-113166667D01*
X103940476Y-113261905D01*
X103988095Y-113357143D01*
X103666667Y-81452381D02*
X103666667Y-82166667D01*
X103619047Y-82309524D01*
X103523809Y-82404762D01*
X103380952Y-82452381D01*
X103285714Y-82452381D01*
X104666667Y-82452381D02*
X104095238Y-82452381D01*
X104380952Y-82452381D02*
X104380952Y-81452381D01*
X104285714Y-81595238D01*
X104190476Y-81690476D01*
X104095238Y-81738095D01*
X117166667Y-121252381D02*
X117166667Y-121966667D01*
X117119047Y-122109524D01*
X117023809Y-122204762D01*
X116880952Y-122252381D01*
X116785714Y-122252381D01*
X117595238Y-121347619D02*
X117642857Y-121300000D01*
X117738095Y-121252381D01*
X117976191Y-121252381D01*
X118071429Y-121300000D01*
X118119048Y-121347619D01*
X118166667Y-121442857D01*
X118166667Y-121538095D01*
X118119048Y-121680952D01*
X117547619Y-122252381D01*
X118166667Y-122252381D01*
X111488095Y-105452381D02*
X111488095Y-106261905D01*
X111535714Y-106357143D01*
X111583333Y-106404762D01*
X111678571Y-106452381D01*
X111869048Y-106452381D01*
X111964286Y-106404762D01*
X112011905Y-106357143D01*
X112059524Y-106261905D01*
X112059524Y-105452381D01*
X112488095Y-105547619D02*
X112535714Y-105500000D01*
X112630952Y-105452381D01*
X112869048Y-105452381D01*
X112964286Y-105500000D01*
X113011905Y-105547619D01*
X113059524Y-105642857D01*
X113059524Y-105738095D01*
X113011905Y-105880952D01*
X112440476Y-106452381D01*
X113059524Y-106452381D01*
M02*
