G04 #@! TF.FileFunction,Copper,L1,Top,Signal*
%FSLAX46Y46*%
G04 Gerber Fmt 4.6, Leading zero omitted, Abs format (unit mm)*
G04 Created by KiCad (PCBNEW 4.0.7) date Wed Nov 28 02:00:18 2018*
%MOMM*%
%LPD*%
G01*
G04 APERTURE LIST*
%ADD10C,0.100000*%
%ADD11C,2.600000*%
%ADD12C,15.000000*%
%ADD13R,0.750000X0.800000*%
%ADD14R,0.800000X0.750000*%
%ADD15R,1.600000X1.000000*%
%ADD16R,0.900000X0.800000*%
%ADD17R,0.500000X0.900000*%
%ADD18R,0.900000X0.500000*%
%ADD19R,0.800000X1.200000*%
%ADD20R,0.350000X1.500000*%
%ADD21R,1.800000X1.000000*%
%ADD22R,1.700000X1.700000*%
%ADD23O,1.700000X1.700000*%
%ADD24R,1.800000X0.500000*%
%ADD25R,0.500000X1.800000*%
%ADD26C,0.600000*%
%ADD27C,0.500000*%
%ADD28C,0.300000*%
%ADD29C,0.220000*%
G04 APERTURE END LIST*
D10*
D11*
X111000000Y-81450000D03*
D12*
X111000000Y-92000000D03*
D11*
X111000000Y-102550000D03*
D13*
X103000000Y-104000000D03*
X103000000Y-102500000D03*
D14*
X101000000Y-100000000D03*
X99500000Y-100000000D03*
D15*
X105000000Y-109250000D03*
X105000000Y-106250000D03*
D14*
X100250000Y-118000000D03*
X101750000Y-118000000D03*
X100250000Y-115500000D03*
X101750000Y-115500000D03*
X120750000Y-108500000D03*
X122250000Y-108500000D03*
D16*
X121000000Y-104050000D03*
X121000000Y-105950000D03*
X123000000Y-105000000D03*
D17*
X118250000Y-105250000D03*
X116750000Y-105250000D03*
X107250000Y-103500000D03*
X105750000Y-103500000D03*
D18*
X108500000Y-104500000D03*
X108500000Y-106000000D03*
D17*
X116750000Y-108500000D03*
X118250000Y-108500000D03*
D19*
X120300000Y-112300000D03*
X122700000Y-112300000D03*
X120300000Y-116700000D03*
X122700000Y-116700000D03*
D20*
X100975000Y-105500000D03*
X100325000Y-105500000D03*
X99675000Y-105500000D03*
X99025000Y-105500000D03*
X99025000Y-102500000D03*
X99675000Y-102500000D03*
X100325000Y-102500000D03*
X100975000Y-102500000D03*
D21*
X104000000Y-118000000D03*
X104000000Y-115500000D03*
D22*
X107000000Y-79500000D03*
D23*
X104460000Y-79500000D03*
D22*
X117500000Y-111500000D03*
D23*
X117500000Y-114040000D03*
X117500000Y-116580000D03*
X117500000Y-119120000D03*
D24*
X107750000Y-110250000D03*
X107750000Y-111250000D03*
X107750000Y-112250000D03*
X107750000Y-113250000D03*
X107750000Y-114250000D03*
X107750000Y-115250000D03*
X107750000Y-116250000D03*
X107750000Y-117250000D03*
X107750000Y-118250000D03*
X107750000Y-119250000D03*
X114250000Y-119250000D03*
X114250000Y-118250000D03*
X114250000Y-117250000D03*
X114250000Y-116250000D03*
X114250000Y-115250000D03*
X114250000Y-114250000D03*
X114250000Y-113250000D03*
X114250000Y-112250000D03*
X114250000Y-111250000D03*
X114250000Y-110250000D03*
D25*
X113500000Y-108350000D03*
X112500000Y-108350000D03*
X111500000Y-108350000D03*
X110500000Y-108350000D03*
X109500000Y-108350000D03*
X108500000Y-108350000D03*
D26*
X105000000Y-105250000D03*
X104250000Y-105250000D03*
X105750000Y-105250000D03*
X100250000Y-116750000D03*
X112500000Y-118250000D03*
X116000000Y-119500000D03*
X105750000Y-119250000D03*
X112500000Y-111250000D03*
X112500000Y-110250000D03*
X114500000Y-108000000D03*
X123000000Y-94000000D03*
X122000000Y-94000000D03*
X121000000Y-94000000D03*
X120000000Y-94000000D03*
X120000000Y-93000000D03*
X121000000Y-93000000D03*
X122000000Y-93000000D03*
X123000000Y-93000000D03*
X123000000Y-92000000D03*
X122000000Y-92000000D03*
X121000000Y-92000000D03*
X120000000Y-92000000D03*
X103000000Y-105000000D03*
X102000000Y-100000000D03*
X119750000Y-104000000D03*
X123250000Y-108500000D03*
X123750000Y-112250000D03*
X123750000Y-116750000D03*
X116750000Y-107000000D03*
D27*
X111000000Y-102550000D02*
X122300000Y-102550000D01*
X123000000Y-103250000D02*
X123000000Y-105000000D01*
X122300000Y-102550000D02*
X123000000Y-103250000D01*
X107000000Y-79500000D02*
X109050000Y-79500000D01*
X109050000Y-79500000D02*
X111000000Y-81450000D01*
X105000000Y-105250000D02*
X104250000Y-105250000D01*
X105750000Y-105250000D02*
X105000000Y-105250000D01*
X105000000Y-105250000D02*
X105000000Y-106250000D01*
X100250000Y-118000000D02*
X100250000Y-116750000D01*
X100250000Y-116750000D02*
X100250000Y-115500000D01*
X114250000Y-118250000D02*
X112500000Y-118250000D01*
X114250000Y-119250000D02*
X115750000Y-119250000D01*
X115750000Y-119250000D02*
X116000000Y-119500000D01*
X107750000Y-119250000D02*
X105750000Y-119250000D01*
X114250000Y-111250000D02*
X112500000Y-111250000D01*
X114250000Y-110250000D02*
X112500000Y-110250000D01*
X113500000Y-108350000D02*
X114150000Y-108350000D01*
X114150000Y-108350000D02*
X114500000Y-108000000D01*
X121000000Y-94000000D02*
X122000000Y-94000000D01*
X120000000Y-93000000D02*
X120000000Y-94000000D01*
X122000000Y-93000000D02*
X121000000Y-93000000D01*
X123000000Y-92000000D02*
X123000000Y-93000000D01*
X121000000Y-92000000D02*
X122000000Y-92000000D01*
X111000000Y-92000000D02*
X120000000Y-92000000D01*
D28*
X100325000Y-102500000D02*
X100325000Y-101425000D01*
X101000000Y-100750000D02*
X101000000Y-100000000D01*
X100325000Y-101425000D02*
X101000000Y-100750000D01*
X103000000Y-104000000D02*
X101250000Y-104000000D01*
X100975000Y-104275000D02*
X100975000Y-105500000D01*
X101250000Y-104000000D02*
X100975000Y-104275000D01*
D27*
X111000000Y-92000000D02*
X113000000Y-92000000D01*
X103000000Y-105000000D02*
X103000000Y-104000000D01*
X101250000Y-100000000D02*
X102000000Y-100000000D01*
X121000000Y-104050000D02*
X119800000Y-104050000D01*
X119800000Y-104050000D02*
X119750000Y-104000000D01*
X122250000Y-108500000D02*
X123250000Y-108500000D01*
X122700000Y-112300000D02*
X123700000Y-112300000D01*
X123700000Y-112300000D02*
X123750000Y-112250000D01*
X122700000Y-116700000D02*
X123700000Y-116700000D01*
X123700000Y-116700000D02*
X123750000Y-116750000D01*
D28*
X99500000Y-100000000D02*
X99500000Y-99000000D01*
X103000000Y-99750000D02*
X103000000Y-102500000D01*
X102000000Y-98750000D02*
X103000000Y-99750000D01*
X99750000Y-98750000D02*
X102000000Y-98750000D01*
X99500000Y-99000000D02*
X99750000Y-98750000D01*
X103000000Y-102500000D02*
X103750000Y-102500000D01*
X104750000Y-103500000D02*
X105750000Y-103500000D01*
X103750000Y-102500000D02*
X104750000Y-103500000D01*
X99675000Y-102500000D02*
X99675000Y-100075000D01*
X99675000Y-100075000D02*
X99750000Y-100000000D01*
X100975000Y-102500000D02*
X103000000Y-102500000D01*
D27*
X108500000Y-106000000D02*
X108500000Y-108350000D01*
X108500000Y-108350000D02*
X107650000Y-108350000D01*
X106750000Y-109250000D02*
X105000000Y-109250000D01*
X107650000Y-108350000D02*
X106750000Y-109250000D01*
X107750000Y-110250000D02*
X105250000Y-110250000D01*
X105250000Y-110250000D02*
X105000000Y-110000000D01*
X105000000Y-110000000D02*
X105000000Y-109250000D01*
D28*
X104000000Y-118000000D02*
X101750000Y-118000000D01*
X107750000Y-117250000D02*
X106250000Y-117250000D01*
X105500000Y-118000000D02*
X104000000Y-118000000D01*
X106250000Y-117250000D02*
X105500000Y-118000000D01*
X104000000Y-115500000D02*
X101750000Y-115500000D01*
X107750000Y-116250000D02*
X106250000Y-116250000D01*
X105500000Y-115500000D02*
X104000000Y-115500000D01*
X106250000Y-116250000D02*
X105500000Y-115500000D01*
X118250000Y-108500000D02*
X120750000Y-108500000D01*
X103750000Y-114250000D02*
X107750000Y-114250000D01*
X98250000Y-102750000D02*
X98250000Y-108750000D01*
X98250000Y-108750000D02*
X103750000Y-114250000D01*
X98500000Y-102500000D02*
X98250000Y-102750000D01*
X99025000Y-102500000D02*
X98500000Y-102500000D01*
X107750000Y-113250000D02*
X103750000Y-113250000D01*
X103750000Y-113250000D02*
X99025000Y-108525000D01*
X99025000Y-108525000D02*
X99025000Y-105500000D01*
X107750000Y-111250000D02*
X104000000Y-111250000D01*
X104000000Y-111250000D02*
X100325000Y-107575000D01*
X100325000Y-107575000D02*
X100325000Y-105500000D01*
X104000000Y-112250000D02*
X107750000Y-112250000D01*
X99675000Y-107925000D02*
X104000000Y-112250000D01*
X99675000Y-105500000D02*
X99675000Y-107925000D01*
X114250000Y-116250000D02*
X115750000Y-116250000D01*
X116000000Y-117620000D02*
X117500000Y-119120000D01*
X116000000Y-116500000D02*
X116000000Y-117620000D01*
X115750000Y-116250000D02*
X116000000Y-116500000D01*
X114250000Y-115250000D02*
X116170000Y-115250000D01*
X116170000Y-115250000D02*
X117500000Y-116580000D01*
X120300000Y-112300000D02*
X120300000Y-110800000D01*
X112500000Y-106750000D02*
X112500000Y-108350000D01*
X112750000Y-106500000D02*
X112500000Y-106750000D01*
X114500000Y-106500000D02*
X112750000Y-106500000D01*
X115250000Y-107250000D02*
X114500000Y-106500000D01*
X115250000Y-108750000D02*
X115250000Y-107250000D01*
X116000000Y-109500000D02*
X115250000Y-108750000D01*
X119000000Y-109500000D02*
X116000000Y-109500000D01*
X120300000Y-110800000D02*
X119000000Y-109500000D01*
X112500000Y-108350000D02*
X112500000Y-108750000D01*
X120300000Y-116700000D02*
X120300000Y-112300000D01*
X116750000Y-108500000D02*
X116500000Y-108500000D01*
X116500000Y-108500000D02*
X116000000Y-108000000D01*
X116000000Y-108000000D02*
X116000000Y-107000000D01*
X116000000Y-107000000D02*
X114750000Y-105750000D01*
X114750000Y-105750000D02*
X112250000Y-105750000D01*
X112250000Y-105750000D02*
X111500000Y-106500000D01*
X111500000Y-106500000D02*
X111500000Y-108350000D01*
X111500000Y-108250000D02*
X111500000Y-108350000D01*
D27*
X107250000Y-103500000D02*
X108250000Y-103500000D01*
X108500000Y-103750000D02*
X108500000Y-104500000D01*
X108250000Y-103500000D02*
X108500000Y-103750000D01*
X116750000Y-105250000D02*
X115750000Y-105250000D01*
X115000000Y-104500000D02*
X108500000Y-104500000D01*
X115750000Y-105250000D02*
X115000000Y-104500000D01*
D28*
X116750000Y-107000000D02*
X116750000Y-105250000D01*
D27*
X118250000Y-105250000D02*
X119000000Y-105250000D01*
X119700000Y-105950000D02*
X121000000Y-105950000D01*
X119000000Y-105250000D02*
X119700000Y-105950000D01*
D29*
G36*
X123390000Y-94390000D02*
X115610000Y-94390000D01*
X115610000Y-91610000D01*
X123390000Y-91610000D01*
X123390000Y-94390000D01*
X123390000Y-94390000D01*
G37*
X123390000Y-94390000D02*
X115610000Y-94390000D01*
X115610000Y-91610000D01*
X123390000Y-91610000D01*
X123390000Y-94390000D01*
G36*
X106140000Y-106140000D02*
X103860000Y-106140000D01*
X103860000Y-104860000D01*
X106140000Y-104860000D01*
X106140000Y-106140000D01*
X106140000Y-106140000D01*
G37*
X106140000Y-106140000D02*
X103860000Y-106140000D01*
X103860000Y-104860000D01*
X106140000Y-104860000D01*
X106140000Y-106140000D01*
M02*
