M48
;DRILL file {KiCad 4.0.7} date Wed Nov 28 02:00:34 2018
;FORMAT={-:-/ absolute / metric / decimal}
FMAT,2
METRIC,TZ
T1C0.400
T2C1.000
T3C1.800
%
G90
G05
M71
T1
X100.25Y-116.75
X102.Y-100.
X103.Y-105.
X104.25Y-105.25
X105.Y-105.25
X105.75Y-105.25
X105.75Y-119.25
X112.5Y-110.25
X112.5Y-111.25
X112.5Y-118.25
X114.5Y-108.
X116.Y-119.5
X116.75Y-107.
X119.75Y-104.
X120.Y-92.
X120.Y-93.
X120.Y-94.
X121.Y-92.
X121.Y-93.
X121.Y-94.
X122.Y-92.
X122.Y-93.
X122.Y-94.
X123.Y-92.
X123.Y-93.
X123.Y-94.
X123.25Y-108.5
X123.75Y-112.25
X123.75Y-116.75
T2
X104.46Y-79.5
X107.Y-79.5
X117.5Y-111.5
X117.5Y-114.04
X117.5Y-116.58
X117.5Y-119.12
T3
X111.Y-81.45
X111.Y-102.55
T0
M30
