G04 #@! TF.FileFunction,Soldermask,Top*
%FSLAX46Y46*%
G04 Gerber Fmt 4.6, Leading zero omitted, Abs format (unit mm)*
G04 Created by KiCad (PCBNEW 4.0.7) date Wed Nov 28 02:00:18 2018*
%MOMM*%
%LPD*%
G01*
G04 APERTURE LIST*
%ADD10C,0.100000*%
%ADD11C,3.000000*%
%ADD12C,15.400000*%
%ADD13R,1.150000X1.200000*%
%ADD14R,1.200000X1.150000*%
%ADD15R,2.000000X1.400000*%
%ADD16R,1.300000X1.200000*%
%ADD17R,0.900000X1.300000*%
%ADD18R,1.300000X0.900000*%
%ADD19R,1.200000X1.600000*%
%ADD20R,0.750000X1.900000*%
%ADD21R,2.200000X1.400000*%
%ADD22R,2.100000X2.100000*%
%ADD23O,2.100000X2.100000*%
%ADD24R,2.200000X0.900000*%
%ADD25R,0.900000X2.200000*%
G04 APERTURE END LIST*
D10*
D11*
X111000000Y-81450000D03*
D12*
X111000000Y-92000000D03*
D11*
X111000000Y-102550000D03*
D13*
X103000000Y-104000000D03*
X103000000Y-102500000D03*
D14*
X101000000Y-100000000D03*
X99500000Y-100000000D03*
D15*
X105000000Y-109250000D03*
X105000000Y-106250000D03*
D14*
X100250000Y-118000000D03*
X101750000Y-118000000D03*
X100250000Y-115500000D03*
X101750000Y-115500000D03*
X120750000Y-108500000D03*
X122250000Y-108500000D03*
D16*
X121000000Y-104050000D03*
X121000000Y-105950000D03*
X123000000Y-105000000D03*
D17*
X118250000Y-105250000D03*
X116750000Y-105250000D03*
X107250000Y-103500000D03*
X105750000Y-103500000D03*
D18*
X108500000Y-104500000D03*
X108500000Y-106000000D03*
D17*
X116750000Y-108500000D03*
X118250000Y-108500000D03*
D19*
X120300000Y-112300000D03*
X122700000Y-112300000D03*
X120300000Y-116700000D03*
X122700000Y-116700000D03*
D20*
X100975000Y-105500000D03*
X100325000Y-105500000D03*
X99675000Y-105500000D03*
X99025000Y-105500000D03*
X99025000Y-102500000D03*
X99675000Y-102500000D03*
X100325000Y-102500000D03*
X100975000Y-102500000D03*
D21*
X104000000Y-118000000D03*
X104000000Y-115500000D03*
D22*
X107000000Y-79500000D03*
D23*
X104460000Y-79500000D03*
D22*
X117500000Y-111500000D03*
D23*
X117500000Y-114040000D03*
X117500000Y-116580000D03*
X117500000Y-119120000D03*
D24*
X107750000Y-110250000D03*
X107750000Y-111250000D03*
X107750000Y-112250000D03*
X107750000Y-113250000D03*
X107750000Y-114250000D03*
X107750000Y-115250000D03*
X107750000Y-116250000D03*
X107750000Y-117250000D03*
X107750000Y-118250000D03*
X107750000Y-119250000D03*
X114250000Y-119250000D03*
X114250000Y-118250000D03*
X114250000Y-117250000D03*
X114250000Y-116250000D03*
X114250000Y-115250000D03*
X114250000Y-114250000D03*
X114250000Y-113250000D03*
X114250000Y-112250000D03*
X114250000Y-111250000D03*
X114250000Y-110250000D03*
D25*
X113500000Y-108350000D03*
X112500000Y-108350000D03*
X111500000Y-108350000D03*
X110500000Y-108350000D03*
X109500000Y-108350000D03*
X108500000Y-108350000D03*
M02*
