G04 #@! TF.FileFunction,Copper,L2,Bot,Signal*
%FSLAX46Y46*%
G04 Gerber Fmt 4.6, Leading zero omitted, Abs format (unit mm)*
G04 Created by KiCad (PCBNEW 4.0.7) date Wed Nov 28 02:00:18 2018*
%MOMM*%
%LPD*%
G01*
G04 APERTURE LIST*
%ADD10C,0.100000*%
%ADD11C,2.600000*%
%ADD12R,1.700000X1.700000*%
%ADD13O,1.700000X1.700000*%
%ADD14C,0.600000*%
%ADD15C,0.500000*%
%ADD16C,0.300000*%
%ADD17C,0.220000*%
G04 APERTURE END LIST*
D10*
D11*
X111000000Y-81450000D03*
X111000000Y-102550000D03*
D12*
X107000000Y-79500000D03*
D13*
X104460000Y-79500000D03*
D12*
X117500000Y-111500000D03*
D13*
X117500000Y-114040000D03*
X117500000Y-116580000D03*
X117500000Y-119120000D03*
D14*
X105000000Y-105250000D03*
X104250000Y-105250000D03*
X105750000Y-105250000D03*
X100250000Y-116750000D03*
X112500000Y-118250000D03*
X116000000Y-119500000D03*
X105750000Y-119250000D03*
X112500000Y-111250000D03*
X112500000Y-110250000D03*
X114500000Y-108000000D03*
X123000000Y-94000000D03*
X122000000Y-94000000D03*
X121000000Y-94000000D03*
X120000000Y-94000000D03*
X120000000Y-93000000D03*
X121000000Y-93000000D03*
X122000000Y-93000000D03*
X123000000Y-93000000D03*
X123000000Y-92000000D03*
X122000000Y-92000000D03*
X121000000Y-92000000D03*
X120000000Y-92000000D03*
X103000000Y-105000000D03*
X102000000Y-100000000D03*
X119750000Y-104000000D03*
X123250000Y-108500000D03*
X123750000Y-112250000D03*
X123750000Y-116750000D03*
X116750000Y-107000000D03*
D15*
X105750000Y-119250000D02*
X104750000Y-119250000D01*
X122000000Y-94000000D02*
X123000000Y-94000000D01*
X120000000Y-94000000D02*
X121000000Y-94000000D01*
X121000000Y-93000000D02*
X120000000Y-93000000D01*
X123000000Y-93000000D02*
X122000000Y-93000000D01*
X122000000Y-92000000D02*
X123000000Y-92000000D01*
X120000000Y-92000000D02*
X121000000Y-92000000D01*
D16*
X117500000Y-111500000D02*
X117500000Y-107750000D01*
X117500000Y-107750000D02*
X116750000Y-107000000D01*
D17*
G36*
X124095000Y-118041073D02*
X123619643Y-119640000D01*
X122690526Y-119640000D01*
X122461134Y-119486725D01*
X122000000Y-119395000D01*
X121538866Y-119486725D01*
X121309474Y-119640000D01*
X118567570Y-119640000D01*
X118613296Y-119571566D01*
X118703118Y-119120000D01*
X118613296Y-118668434D01*
X118357504Y-118285614D01*
X117974684Y-118029822D01*
X117523118Y-117940000D01*
X117476882Y-117940000D01*
X117025316Y-118029822D01*
X116642496Y-118285614D01*
X116386704Y-118668434D01*
X116296882Y-119120000D01*
X116386704Y-119571566D01*
X116432430Y-119640000D01*
X114860000Y-119640000D01*
X114860000Y-118750000D01*
X114852477Y-118710020D01*
X114828849Y-118673300D01*
X114792796Y-118648666D01*
X114750000Y-118640000D01*
X107250000Y-118640000D01*
X107210020Y-118647523D01*
X107173300Y-118671151D01*
X107148666Y-118707204D01*
X107140000Y-118750000D01*
X107140000Y-119640000D01*
X100690526Y-119640000D01*
X100461134Y-119486725D01*
X100000000Y-119395000D01*
X99538866Y-119486725D01*
X99309474Y-119640000D01*
X98380357Y-119640000D01*
X97905000Y-118041073D01*
X97905000Y-116580000D01*
X116296882Y-116580000D01*
X116386704Y-117031566D01*
X116642496Y-117414386D01*
X117025316Y-117670178D01*
X117476882Y-117760000D01*
X117523118Y-117760000D01*
X117974684Y-117670178D01*
X118357504Y-117414386D01*
X118613296Y-117031566D01*
X118703118Y-116580000D01*
X118613296Y-116128434D01*
X118357504Y-115745614D01*
X117974684Y-115489822D01*
X117523118Y-115400000D01*
X117476882Y-115400000D01*
X117025316Y-115489822D01*
X116642496Y-115745614D01*
X116386704Y-116128434D01*
X116296882Y-116580000D01*
X97905000Y-116580000D01*
X97905000Y-114366921D01*
X116330847Y-114366921D01*
X116442105Y-114635556D01*
X116750542Y-114995061D01*
X117173077Y-115209166D01*
X117360000Y-115154914D01*
X117360000Y-114180000D01*
X117640000Y-114180000D01*
X117640000Y-115154914D01*
X117826923Y-115209166D01*
X118249458Y-114995061D01*
X118557895Y-114635556D01*
X118669153Y-114366921D01*
X118614239Y-114180000D01*
X117640000Y-114180000D01*
X117360000Y-114180000D01*
X116385761Y-114180000D01*
X116330847Y-114366921D01*
X97905000Y-114366921D01*
X97905000Y-113713079D01*
X116330847Y-113713079D01*
X116385761Y-113900000D01*
X117360000Y-113900000D01*
X117360000Y-112925086D01*
X117640000Y-112925086D01*
X117640000Y-113900000D01*
X118614239Y-113900000D01*
X118669153Y-113713079D01*
X118557895Y-113444444D01*
X118249458Y-113084939D01*
X117826923Y-112870834D01*
X117640000Y-112925086D01*
X117360000Y-112925086D01*
X117173077Y-112870834D01*
X116750542Y-113084939D01*
X116442105Y-113444444D01*
X116330847Y-113713079D01*
X97905000Y-113713079D01*
X97905000Y-107360000D01*
X102250000Y-107360000D01*
X102289980Y-107352477D01*
X102326700Y-107328849D01*
X102351334Y-107292796D01*
X102360000Y-107250000D01*
X102360000Y-107124765D01*
X116119891Y-107124765D01*
X116215601Y-107356400D01*
X116392668Y-107533776D01*
X116624136Y-107629890D01*
X116701135Y-107629957D01*
X117020000Y-107948822D01*
X117020000Y-110313535D01*
X116650000Y-110313535D01*
X116527709Y-110336546D01*
X116415393Y-110408819D01*
X116340044Y-110519096D01*
X116313535Y-110650000D01*
X116313535Y-112350000D01*
X116336546Y-112472291D01*
X116408819Y-112584607D01*
X116519096Y-112659956D01*
X116650000Y-112686465D01*
X118350000Y-112686465D01*
X118472291Y-112663454D01*
X118584607Y-112591181D01*
X118659956Y-112480904D01*
X118686465Y-112350000D01*
X118686465Y-110650000D01*
X118663454Y-110527709D01*
X118591181Y-110415393D01*
X118480904Y-110340044D01*
X118350000Y-110313535D01*
X117980000Y-110313535D01*
X117980000Y-107750000D01*
X117943462Y-107566312D01*
X117839411Y-107410589D01*
X117380043Y-106951221D01*
X117380109Y-106875235D01*
X117284399Y-106643600D01*
X117107332Y-106466224D01*
X116875864Y-106370110D01*
X116625235Y-106369891D01*
X116393600Y-106465601D01*
X116216224Y-106642668D01*
X116120110Y-106874136D01*
X116119891Y-107124765D01*
X102360000Y-107124765D01*
X102360000Y-102872805D01*
X109369717Y-102872805D01*
X109617347Y-103472115D01*
X110075473Y-103931041D01*
X110674350Y-104179717D01*
X111322805Y-104180283D01*
X111922115Y-103932653D01*
X112381041Y-103474527D01*
X112629717Y-102875650D01*
X112630283Y-102227195D01*
X112382653Y-101627885D01*
X111924527Y-101168959D01*
X111325650Y-100920283D01*
X110677195Y-100919717D01*
X110077885Y-101167347D01*
X109618959Y-101625473D01*
X109370283Y-102224350D01*
X109369717Y-102872805D01*
X102360000Y-102872805D01*
X102360000Y-101000000D01*
X102352477Y-100960020D01*
X102328849Y-100923300D01*
X102292796Y-100898666D01*
X102250000Y-100890000D01*
X97905000Y-100890000D01*
X97905000Y-81772805D01*
X109369717Y-81772805D01*
X109617347Y-82372115D01*
X110075473Y-82831041D01*
X110674350Y-83079717D01*
X111322805Y-83080283D01*
X111922115Y-82832653D01*
X112381041Y-82374527D01*
X112629717Y-81775650D01*
X112630283Y-81127195D01*
X112382653Y-80527885D01*
X111924527Y-80068959D01*
X111758456Y-80000000D01*
X120795000Y-80000000D01*
X120886725Y-80461134D01*
X121147936Y-80852064D01*
X121538866Y-81113275D01*
X122000000Y-81205000D01*
X122461134Y-81113275D01*
X122852064Y-80852064D01*
X123113275Y-80461134D01*
X123205000Y-80000000D01*
X123113275Y-79538866D01*
X122852064Y-79147936D01*
X122461134Y-78886725D01*
X122000000Y-78795000D01*
X121538866Y-78886725D01*
X121147936Y-79147936D01*
X120886725Y-79538866D01*
X120795000Y-80000000D01*
X111758456Y-80000000D01*
X111325650Y-79820283D01*
X110677195Y-79819717D01*
X110077885Y-80067347D01*
X109618959Y-80525473D01*
X109370283Y-81124350D01*
X109369717Y-81772805D01*
X97905000Y-81772805D01*
X97905000Y-80000000D01*
X98795000Y-80000000D01*
X98886725Y-80461134D01*
X99147936Y-80852064D01*
X99538866Y-81113275D01*
X100000000Y-81205000D01*
X100461134Y-81113275D01*
X100852064Y-80852064D01*
X101113275Y-80461134D01*
X101205000Y-80000000D01*
X101170573Y-79826923D01*
X103290834Y-79826923D01*
X103504939Y-80249458D01*
X103864444Y-80557895D01*
X104133079Y-80669153D01*
X104320000Y-80614239D01*
X104320000Y-79640000D01*
X104600000Y-79640000D01*
X104600000Y-80614239D01*
X104786921Y-80669153D01*
X105055556Y-80557895D01*
X105415061Y-80249458D01*
X105629166Y-79826923D01*
X105574914Y-79640000D01*
X104600000Y-79640000D01*
X104320000Y-79640000D01*
X103345086Y-79640000D01*
X103290834Y-79826923D01*
X101170573Y-79826923D01*
X101113275Y-79538866D01*
X100868863Y-79173077D01*
X103290834Y-79173077D01*
X103345086Y-79360000D01*
X104320000Y-79360000D01*
X104320000Y-78385761D01*
X104600000Y-78385761D01*
X104600000Y-79360000D01*
X105574914Y-79360000D01*
X105629166Y-79173077D01*
X105415061Y-78750542D01*
X105297873Y-78650000D01*
X105813535Y-78650000D01*
X105813535Y-80350000D01*
X105836546Y-80472291D01*
X105908819Y-80584607D01*
X106019096Y-80659956D01*
X106150000Y-80686465D01*
X107850000Y-80686465D01*
X107972291Y-80663454D01*
X108084607Y-80591181D01*
X108159956Y-80480904D01*
X108186465Y-80350000D01*
X108186465Y-78650000D01*
X108163454Y-78527709D01*
X108091181Y-78415393D01*
X107980904Y-78340044D01*
X107850000Y-78313535D01*
X106150000Y-78313535D01*
X106027709Y-78336546D01*
X105915393Y-78408819D01*
X105840044Y-78519096D01*
X105813535Y-78650000D01*
X105297873Y-78650000D01*
X105055556Y-78442105D01*
X104786921Y-78330847D01*
X104600000Y-78385761D01*
X104320000Y-78385761D01*
X104133079Y-78330847D01*
X103864444Y-78442105D01*
X103504939Y-78750542D01*
X103290834Y-79173077D01*
X100868863Y-79173077D01*
X100852064Y-79147936D01*
X100461134Y-78886725D01*
X100000000Y-78795000D01*
X99538866Y-78886725D01*
X99147936Y-79147936D01*
X98886725Y-79538866D01*
X98795000Y-80000000D01*
X97905000Y-80000000D01*
X97905000Y-77905000D01*
X124095000Y-77905000D01*
X124095000Y-118041073D01*
X124095000Y-118041073D01*
G37*
X124095000Y-118041073D02*
X123619643Y-119640000D01*
X122690526Y-119640000D01*
X122461134Y-119486725D01*
X122000000Y-119395000D01*
X121538866Y-119486725D01*
X121309474Y-119640000D01*
X118567570Y-119640000D01*
X118613296Y-119571566D01*
X118703118Y-119120000D01*
X118613296Y-118668434D01*
X118357504Y-118285614D01*
X117974684Y-118029822D01*
X117523118Y-117940000D01*
X117476882Y-117940000D01*
X117025316Y-118029822D01*
X116642496Y-118285614D01*
X116386704Y-118668434D01*
X116296882Y-119120000D01*
X116386704Y-119571566D01*
X116432430Y-119640000D01*
X114860000Y-119640000D01*
X114860000Y-118750000D01*
X114852477Y-118710020D01*
X114828849Y-118673300D01*
X114792796Y-118648666D01*
X114750000Y-118640000D01*
X107250000Y-118640000D01*
X107210020Y-118647523D01*
X107173300Y-118671151D01*
X107148666Y-118707204D01*
X107140000Y-118750000D01*
X107140000Y-119640000D01*
X100690526Y-119640000D01*
X100461134Y-119486725D01*
X100000000Y-119395000D01*
X99538866Y-119486725D01*
X99309474Y-119640000D01*
X98380357Y-119640000D01*
X97905000Y-118041073D01*
X97905000Y-116580000D01*
X116296882Y-116580000D01*
X116386704Y-117031566D01*
X116642496Y-117414386D01*
X117025316Y-117670178D01*
X117476882Y-117760000D01*
X117523118Y-117760000D01*
X117974684Y-117670178D01*
X118357504Y-117414386D01*
X118613296Y-117031566D01*
X118703118Y-116580000D01*
X118613296Y-116128434D01*
X118357504Y-115745614D01*
X117974684Y-115489822D01*
X117523118Y-115400000D01*
X117476882Y-115400000D01*
X117025316Y-115489822D01*
X116642496Y-115745614D01*
X116386704Y-116128434D01*
X116296882Y-116580000D01*
X97905000Y-116580000D01*
X97905000Y-114366921D01*
X116330847Y-114366921D01*
X116442105Y-114635556D01*
X116750542Y-114995061D01*
X117173077Y-115209166D01*
X117360000Y-115154914D01*
X117360000Y-114180000D01*
X117640000Y-114180000D01*
X117640000Y-115154914D01*
X117826923Y-115209166D01*
X118249458Y-114995061D01*
X118557895Y-114635556D01*
X118669153Y-114366921D01*
X118614239Y-114180000D01*
X117640000Y-114180000D01*
X117360000Y-114180000D01*
X116385761Y-114180000D01*
X116330847Y-114366921D01*
X97905000Y-114366921D01*
X97905000Y-113713079D01*
X116330847Y-113713079D01*
X116385761Y-113900000D01*
X117360000Y-113900000D01*
X117360000Y-112925086D01*
X117640000Y-112925086D01*
X117640000Y-113900000D01*
X118614239Y-113900000D01*
X118669153Y-113713079D01*
X118557895Y-113444444D01*
X118249458Y-113084939D01*
X117826923Y-112870834D01*
X117640000Y-112925086D01*
X117360000Y-112925086D01*
X117173077Y-112870834D01*
X116750542Y-113084939D01*
X116442105Y-113444444D01*
X116330847Y-113713079D01*
X97905000Y-113713079D01*
X97905000Y-107360000D01*
X102250000Y-107360000D01*
X102289980Y-107352477D01*
X102326700Y-107328849D01*
X102351334Y-107292796D01*
X102360000Y-107250000D01*
X102360000Y-107124765D01*
X116119891Y-107124765D01*
X116215601Y-107356400D01*
X116392668Y-107533776D01*
X116624136Y-107629890D01*
X116701135Y-107629957D01*
X117020000Y-107948822D01*
X117020000Y-110313535D01*
X116650000Y-110313535D01*
X116527709Y-110336546D01*
X116415393Y-110408819D01*
X116340044Y-110519096D01*
X116313535Y-110650000D01*
X116313535Y-112350000D01*
X116336546Y-112472291D01*
X116408819Y-112584607D01*
X116519096Y-112659956D01*
X116650000Y-112686465D01*
X118350000Y-112686465D01*
X118472291Y-112663454D01*
X118584607Y-112591181D01*
X118659956Y-112480904D01*
X118686465Y-112350000D01*
X118686465Y-110650000D01*
X118663454Y-110527709D01*
X118591181Y-110415393D01*
X118480904Y-110340044D01*
X118350000Y-110313535D01*
X117980000Y-110313535D01*
X117980000Y-107750000D01*
X117943462Y-107566312D01*
X117839411Y-107410589D01*
X117380043Y-106951221D01*
X117380109Y-106875235D01*
X117284399Y-106643600D01*
X117107332Y-106466224D01*
X116875864Y-106370110D01*
X116625235Y-106369891D01*
X116393600Y-106465601D01*
X116216224Y-106642668D01*
X116120110Y-106874136D01*
X116119891Y-107124765D01*
X102360000Y-107124765D01*
X102360000Y-102872805D01*
X109369717Y-102872805D01*
X109617347Y-103472115D01*
X110075473Y-103931041D01*
X110674350Y-104179717D01*
X111322805Y-104180283D01*
X111922115Y-103932653D01*
X112381041Y-103474527D01*
X112629717Y-102875650D01*
X112630283Y-102227195D01*
X112382653Y-101627885D01*
X111924527Y-101168959D01*
X111325650Y-100920283D01*
X110677195Y-100919717D01*
X110077885Y-101167347D01*
X109618959Y-101625473D01*
X109370283Y-102224350D01*
X109369717Y-102872805D01*
X102360000Y-102872805D01*
X102360000Y-101000000D01*
X102352477Y-100960020D01*
X102328849Y-100923300D01*
X102292796Y-100898666D01*
X102250000Y-100890000D01*
X97905000Y-100890000D01*
X97905000Y-81772805D01*
X109369717Y-81772805D01*
X109617347Y-82372115D01*
X110075473Y-82831041D01*
X110674350Y-83079717D01*
X111322805Y-83080283D01*
X111922115Y-82832653D01*
X112381041Y-82374527D01*
X112629717Y-81775650D01*
X112630283Y-81127195D01*
X112382653Y-80527885D01*
X111924527Y-80068959D01*
X111758456Y-80000000D01*
X120795000Y-80000000D01*
X120886725Y-80461134D01*
X121147936Y-80852064D01*
X121538866Y-81113275D01*
X122000000Y-81205000D01*
X122461134Y-81113275D01*
X122852064Y-80852064D01*
X123113275Y-80461134D01*
X123205000Y-80000000D01*
X123113275Y-79538866D01*
X122852064Y-79147936D01*
X122461134Y-78886725D01*
X122000000Y-78795000D01*
X121538866Y-78886725D01*
X121147936Y-79147936D01*
X120886725Y-79538866D01*
X120795000Y-80000000D01*
X111758456Y-80000000D01*
X111325650Y-79820283D01*
X110677195Y-79819717D01*
X110077885Y-80067347D01*
X109618959Y-80525473D01*
X109370283Y-81124350D01*
X109369717Y-81772805D01*
X97905000Y-81772805D01*
X97905000Y-80000000D01*
X98795000Y-80000000D01*
X98886725Y-80461134D01*
X99147936Y-80852064D01*
X99538866Y-81113275D01*
X100000000Y-81205000D01*
X100461134Y-81113275D01*
X100852064Y-80852064D01*
X101113275Y-80461134D01*
X101205000Y-80000000D01*
X101170573Y-79826923D01*
X103290834Y-79826923D01*
X103504939Y-80249458D01*
X103864444Y-80557895D01*
X104133079Y-80669153D01*
X104320000Y-80614239D01*
X104320000Y-79640000D01*
X104600000Y-79640000D01*
X104600000Y-80614239D01*
X104786921Y-80669153D01*
X105055556Y-80557895D01*
X105415061Y-80249458D01*
X105629166Y-79826923D01*
X105574914Y-79640000D01*
X104600000Y-79640000D01*
X104320000Y-79640000D01*
X103345086Y-79640000D01*
X103290834Y-79826923D01*
X101170573Y-79826923D01*
X101113275Y-79538866D01*
X100868863Y-79173077D01*
X103290834Y-79173077D01*
X103345086Y-79360000D01*
X104320000Y-79360000D01*
X104320000Y-78385761D01*
X104600000Y-78385761D01*
X104600000Y-79360000D01*
X105574914Y-79360000D01*
X105629166Y-79173077D01*
X105415061Y-78750542D01*
X105297873Y-78650000D01*
X105813535Y-78650000D01*
X105813535Y-80350000D01*
X105836546Y-80472291D01*
X105908819Y-80584607D01*
X106019096Y-80659956D01*
X106150000Y-80686465D01*
X107850000Y-80686465D01*
X107972291Y-80663454D01*
X108084607Y-80591181D01*
X108159956Y-80480904D01*
X108186465Y-80350000D01*
X108186465Y-78650000D01*
X108163454Y-78527709D01*
X108091181Y-78415393D01*
X107980904Y-78340044D01*
X107850000Y-78313535D01*
X106150000Y-78313535D01*
X106027709Y-78336546D01*
X105915393Y-78408819D01*
X105840044Y-78519096D01*
X105813535Y-78650000D01*
X105297873Y-78650000D01*
X105055556Y-78442105D01*
X104786921Y-78330847D01*
X104600000Y-78385761D01*
X104320000Y-78385761D01*
X104133079Y-78330847D01*
X103864444Y-78442105D01*
X103504939Y-78750542D01*
X103290834Y-79173077D01*
X100868863Y-79173077D01*
X100852064Y-79147936D01*
X100461134Y-78886725D01*
X100000000Y-78795000D01*
X99538866Y-78886725D01*
X99147936Y-79147936D01*
X98886725Y-79538866D01*
X98795000Y-80000000D01*
X97905000Y-80000000D01*
X97905000Y-77905000D01*
X124095000Y-77905000D01*
X124095000Y-118041073D01*
M02*
